# xmcd
#
# Track frame offsets:
#	150
#	13698
#	27396
#	43644
#	61692
#	77415
#	98388
#	112986
#	130659
#	145557
#	163005
#	180528
#
# Disc length: 2634 seconds
#
# Revision: 1
# Processed by: cddbd v1.5.2PL0 Copyright (c) Steve Scherf et al.
# Submitted via: audiograbber 1.83.01
#
DISCID=830a480c
DTITLE=Blake Shelton - Startin' Fires
DYEAR=2009
DGENRE=
TTITLE0=Green
TTITLE1=Good at Startin' Fires
TTITLE2=She Wouldn't Be Gone
TTITLE3=I'll Just Hold On
TTITLE4=100 Miles
TTITLE5=Never Lovin' You
TTITLE6=Country Strong
TTITLE7=Home Sweet Home
TTITLE8=This is Gonna Take All Night
TTITLE9=Here I Am
TTITLE10=I Don't Care
TTITLE11=Bare Skin Rug (Featuring Miranda Lambert)
EXTD=
EXTT0=
EXTT1=
EXTT2=
EXTT3=
EXTT4=
EXTT5=
EXTT6=
EXTT7=
EXTT8=
EXTT9=
EXTT10=
EXTT11=
PLAYORDER=
